<mxfile host="app.diagrams.net" modified="2024-07-05T03:47:05.226Z" agent="Mozilla/5.0 (Macintosh; Intel Mac OS X 10_15_7) AppleWebKit/537.36 (KHTML, like Gecko) Chrome/126.0.0.0 Safari/537.36" etag="1wuvu_5UooySeb1a236u" version="24.6.4" type="github">
  <diagram name="第 1 页" id="4-y-vIeG8P-sDKISA_m4">
    <mxGraphModel dx="1059" dy="675" grid="1" gridSize="10" guides="1" tooltips="1" connect="1" arrows="1" fold="1" page="1" pageScale="1" pageWidth="827" pageHeight="1169" math="0" shadow="0">
      <root>
        <mxCell id="0" />
        <mxCell id="1" parent="0" />
        <mxCell id="l1id5_d6CqMrEGTcTIfL-1" value="" style="endArrow=none;dashed=1;html=1;rounded=0;" edge="1" parent="1">
          <mxGeometry width="50" height="50" relative="1" as="geometry">
            <mxPoint x="160" y="440" as="sourcePoint" />
            <mxPoint x="2573.3333333333335" y="440" as="targetPoint" />
          </mxGeometry>
        </mxCell>
        <mxCell id="l1id5_d6CqMrEGTcTIfL-2" value="" style="endArrow=none;dashed=1;html=1;rounded=0;" edge="1" parent="1">
          <mxGeometry width="50" height="50" relative="1" as="geometry">
            <mxPoint x="160" y="640" as="sourcePoint" />
            <mxPoint x="2562.6666666666665" y="640" as="targetPoint" />
          </mxGeometry>
        </mxCell>
        <mxCell id="l1id5_d6CqMrEGTcTIfL-3" value="认知层" style="text;html=1;strokeColor=none;fillColor=none;align=center;verticalAlign=middle;whiteSpace=wrap;rounded=0;fontSize=20;" vertex="1" parent="1">
          <mxGeometry x="40" y="330" width="110" height="30" as="geometry" />
        </mxCell>
        <mxCell id="l1id5_d6CqMrEGTcTIfL-4" value="交互层" style="text;html=1;strokeColor=none;fillColor=none;align=center;verticalAlign=middle;whiteSpace=wrap;rounded=0;fontSize=20;" vertex="1" parent="1">
          <mxGeometry x="40" y="530" width="110" height="30" as="geometry" />
        </mxCell>
        <mxCell id="l1id5_d6CqMrEGTcTIfL-5" value="动力层" style="text;html=1;strokeColor=none;fillColor=none;align=center;verticalAlign=middle;whiteSpace=wrap;rounded=0;fontSize=20;" vertex="1" parent="1">
          <mxGeometry x="40" y="720" width="110" height="30" as="geometry" />
        </mxCell>
        <mxCell id="l1id5_d6CqMrEGTcTIfL-76" style="edgeStyle=none;shape=connector;rounded=0;orthogonalLoop=1;jettySize=auto;html=1;strokeColor=default;align=center;verticalAlign=middle;fontFamily=Helvetica;fontSize=11;fontColor=default;labelBackgroundColor=default;endArrow=none;endFill=0;" edge="1" parent="1" source="l1id5_d6CqMrEGTcTIfL-40" target="l1id5_d6CqMrEGTcTIfL-75">
          <mxGeometry relative="1" as="geometry" />
        </mxCell>
        <mxCell id="l1id5_d6CqMrEGTcTIfL-40" value="存在性焦虑" style="rounded=1;whiteSpace=wrap;html=1;fillColor=#e1d5e7;strokeColor=#9673a6;arcSize=29;" vertex="1" parent="1">
          <mxGeometry x="320" y="700" width="80" height="40" as="geometry" />
        </mxCell>
        <mxCell id="l1id5_d6CqMrEGTcTIfL-70" style="rounded=0;orthogonalLoop=1;jettySize=auto;html=1;endArrow=none;endFill=0;" edge="1" parent="1" source="l1id5_d6CqMrEGTcTIfL-43" target="l1id5_d6CqMrEGTcTIfL-40">
          <mxGeometry relative="1" as="geometry" />
        </mxCell>
        <mxCell id="l1id5_d6CqMrEGTcTIfL-71" style="edgeStyle=none;shape=connector;rounded=0;orthogonalLoop=1;jettySize=auto;html=1;strokeColor=default;align=center;verticalAlign=middle;fontFamily=Helvetica;fontSize=11;fontColor=default;labelBackgroundColor=default;endArrow=none;endFill=0;" edge="1" parent="1" source="l1id5_d6CqMrEGTcTIfL-43" target="l1id5_d6CqMrEGTcTIfL-69">
          <mxGeometry relative="1" as="geometry" />
        </mxCell>
        <mxCell id="l1id5_d6CqMrEGTcTIfL-77" style="edgeStyle=none;shape=connector;rounded=0;orthogonalLoop=1;jettySize=auto;html=1;entryX=0;entryY=0.5;entryDx=0;entryDy=0;strokeColor=default;align=center;verticalAlign=middle;fontFamily=Helvetica;fontSize=11;fontColor=default;labelBackgroundColor=default;endArrow=none;endFill=0;" edge="1" parent="1" source="l1id5_d6CqMrEGTcTIfL-43" target="l1id5_d6CqMrEGTcTIfL-46">
          <mxGeometry relative="1" as="geometry" />
        </mxCell>
        <mxCell id="l1id5_d6CqMrEGTcTIfL-43" value="意义" style="rounded=1;whiteSpace=wrap;html=1;fillColor=#d5e8d4;strokeColor=#82b366;" vertex="1" parent="1">
          <mxGeometry x="280" y="520" width="80" height="40" as="geometry" />
        </mxCell>
        <mxCell id="l1id5_d6CqMrEGTcTIfL-79" style="edgeStyle=none;shape=connector;rounded=0;orthogonalLoop=1;jettySize=auto;html=1;entryX=0.5;entryY=1;entryDx=0;entryDy=0;strokeColor=default;align=center;verticalAlign=middle;fontFamily=Helvetica;fontSize=11;fontColor=default;labelBackgroundColor=default;endArrow=none;endFill=0;" edge="1" parent="1" source="l1id5_d6CqMrEGTcTIfL-46" target="l1id5_d6CqMrEGTcTIfL-78">
          <mxGeometry relative="1" as="geometry" />
        </mxCell>
        <mxCell id="l1id5_d6CqMrEGTcTIfL-81" style="edgeStyle=none;shape=connector;rounded=0;orthogonalLoop=1;jettySize=auto;html=1;strokeColor=default;align=center;verticalAlign=middle;fontFamily=Helvetica;fontSize=11;fontColor=default;labelBackgroundColor=default;endArrow=none;endFill=0;" edge="1" parent="1" source="l1id5_d6CqMrEGTcTIfL-46" target="l1id5_d6CqMrEGTcTIfL-75">
          <mxGeometry relative="1" as="geometry" />
        </mxCell>
        <mxCell id="l1id5_d6CqMrEGTcTIfL-46" value="系统外寻找" style="rounded=1;whiteSpace=wrap;html=1;fillColor=#d5e8d4;strokeColor=#82b366;" vertex="1" parent="1">
          <mxGeometry x="440" y="560" width="80" height="40" as="geometry" />
        </mxCell>
        <mxCell id="l1id5_d6CqMrEGTcTIfL-69" value="哲学三问" style="rounded=1;whiteSpace=wrap;html=1;fillColor=#dae8fc;strokeColor=#6c8ebf;" vertex="1" parent="1">
          <mxGeometry x="360" y="370" width="80" height="40" as="geometry" />
        </mxCell>
        <mxCell id="l1id5_d6CqMrEGTcTIfL-74" style="edgeStyle=none;shape=connector;rounded=0;orthogonalLoop=1;jettySize=auto;html=1;strokeColor=default;align=center;verticalAlign=middle;fontFamily=Helvetica;fontSize=11;fontColor=default;labelBackgroundColor=default;endArrow=none;endFill=0;" edge="1" parent="1" source="l1id5_d6CqMrEGTcTIfL-73" target="l1id5_d6CqMrEGTcTIfL-43">
          <mxGeometry relative="1" as="geometry" />
        </mxCell>
        <mxCell id="l1id5_d6CqMrEGTcTIfL-80" style="edgeStyle=none;shape=connector;rounded=0;orthogonalLoop=1;jettySize=auto;html=1;entryX=0;entryY=0.5;entryDx=0;entryDy=0;strokeColor=default;align=center;verticalAlign=middle;fontFamily=Helvetica;fontSize=11;fontColor=default;labelBackgroundColor=default;endArrow=none;endFill=0;" edge="1" parent="1" source="l1id5_d6CqMrEGTcTIfL-73" target="l1id5_d6CqMrEGTcTIfL-78">
          <mxGeometry relative="1" as="geometry" />
        </mxCell>
        <mxCell id="l1id5_d6CqMrEGTcTIfL-73" value="生活" style="rounded=1;whiteSpace=wrap;html=1;fillColor=#dae8fc;strokeColor=#6c8ebf;" vertex="1" parent="1">
          <mxGeometry x="240" y="320" width="80" height="40" as="geometry" />
        </mxCell>
        <mxCell id="l1id5_d6CqMrEGTcTIfL-75" value="自我指涉" style="rounded=1;whiteSpace=wrap;html=1;fillColor=#e1d5e7;strokeColor=#9673a6;arcSize=29;" vertex="1" parent="1">
          <mxGeometry x="480" y="680" width="80" height="40" as="geometry" />
        </mxCell>
        <mxCell id="l1id5_d6CqMrEGTcTIfL-83" style="edgeStyle=none;shape=connector;rounded=0;orthogonalLoop=1;jettySize=auto;html=1;strokeColor=default;align=center;verticalAlign=middle;fontFamily=Helvetica;fontSize=11;fontColor=default;labelBackgroundColor=default;endArrow=none;endFill=0;" edge="1" parent="1" source="l1id5_d6CqMrEGTcTIfL-78" target="l1id5_d6CqMrEGTcTIfL-82">
          <mxGeometry relative="1" as="geometry" />
        </mxCell>
        <mxCell id="l1id5_d6CqMrEGTcTIfL-78" value="高于个体的&lt;br&gt;事业" style="rounded=1;whiteSpace=wrap;html=1;fillColor=#dae8fc;strokeColor=#6c8ebf;" vertex="1" parent="1">
          <mxGeometry x="490" y="300" width="80" height="40" as="geometry" />
        </mxCell>
        <mxCell id="l1id5_d6CqMrEGTcTIfL-96" style="edgeStyle=none;shape=connector;rounded=0;orthogonalLoop=1;jettySize=auto;html=1;entryX=0.5;entryY=0;entryDx=0;entryDy=0;strokeColor=default;align=center;verticalAlign=middle;fontFamily=Helvetica;fontSize=11;fontColor=default;labelBackgroundColor=default;endArrow=none;endFill=0;" edge="1" parent="1" source="l1id5_d6CqMrEGTcTIfL-82" target="l1id5_d6CqMrEGTcTIfL-94">
          <mxGeometry relative="1" as="geometry" />
        </mxCell>
        <mxCell id="l1id5_d6CqMrEGTcTIfL-82" value="行动" style="rounded=1;whiteSpace=wrap;html=1;fillColor=#dae8fc;strokeColor=#6c8ebf;" vertex="1" parent="1">
          <mxGeometry x="620" y="340" width="80" height="40" as="geometry" />
        </mxCell>
        <mxCell id="l1id5_d6CqMrEGTcTIfL-92" style="edgeStyle=none;shape=connector;rounded=0;orthogonalLoop=1;jettySize=auto;html=1;strokeColor=default;align=center;verticalAlign=middle;fontFamily=Helvetica;fontSize=11;fontColor=default;labelBackgroundColor=default;endArrow=none;endFill=0;" edge="1" parent="1" source="l1id5_d6CqMrEGTcTIfL-86" target="l1id5_d6CqMrEGTcTIfL-91">
          <mxGeometry relative="1" as="geometry" />
        </mxCell>
        <mxCell id="l1id5_d6CqMrEGTcTIfL-115" style="edgeStyle=none;shape=connector;rounded=0;orthogonalLoop=1;jettySize=auto;html=1;entryX=0;entryY=0.5;entryDx=0;entryDy=0;strokeColor=default;align=center;verticalAlign=middle;fontFamily=Helvetica;fontSize=11;fontColor=default;labelBackgroundColor=default;endArrow=none;endFill=0;" edge="1" parent="1" source="l1id5_d6CqMrEGTcTIfL-86" target="l1id5_d6CqMrEGTcTIfL-104">
          <mxGeometry relative="1" as="geometry" />
        </mxCell>
        <mxCell id="l1id5_d6CqMrEGTcTIfL-86" value="兴趣" style="rounded=1;whiteSpace=wrap;html=1;fillColor=#d5e8d4;strokeColor=#82b366;" vertex="1" parent="1">
          <mxGeometry x="560" y="565" width="80" height="40" as="geometry" />
        </mxCell>
        <mxCell id="l1id5_d6CqMrEGTcTIfL-89" style="edgeStyle=none;shape=connector;rounded=0;orthogonalLoop=1;jettySize=auto;html=1;strokeColor=default;align=center;verticalAlign=middle;fontFamily=Helvetica;fontSize=11;fontColor=default;labelBackgroundColor=default;endArrow=none;endFill=0;" edge="1" parent="1" source="l1id5_d6CqMrEGTcTIfL-87" target="l1id5_d6CqMrEGTcTIfL-86">
          <mxGeometry relative="1" as="geometry" />
        </mxCell>
        <mxCell id="l1id5_d6CqMrEGTcTIfL-87" value="需求" style="rounded=1;whiteSpace=wrap;html=1;fillColor=#e1d5e7;strokeColor=#9673a6;arcSize=29;" vertex="1" parent="1">
          <mxGeometry x="630" y="680" width="80" height="40" as="geometry" />
        </mxCell>
        <mxCell id="l1id5_d6CqMrEGTcTIfL-93" style="edgeStyle=none;shape=connector;rounded=0;orthogonalLoop=1;jettySize=auto;html=1;entryX=0.75;entryY=1;entryDx=0;entryDy=0;strokeColor=default;align=center;verticalAlign=middle;fontFamily=Helvetica;fontSize=11;fontColor=default;labelBackgroundColor=default;endArrow=none;endFill=0;" edge="1" parent="1" source="l1id5_d6CqMrEGTcTIfL-91" target="l1id5_d6CqMrEGTcTIfL-78">
          <mxGeometry relative="1" as="geometry" />
        </mxCell>
        <mxCell id="l1id5_d6CqMrEGTcTIfL-116" style="edgeStyle=none;shape=connector;rounded=0;orthogonalLoop=1;jettySize=auto;html=1;entryX=0;entryY=0.25;entryDx=0;entryDy=0;strokeColor=default;align=center;verticalAlign=middle;fontFamily=Helvetica;fontSize=11;fontColor=default;labelBackgroundColor=default;endArrow=none;endFill=0;" edge="1" parent="1" source="l1id5_d6CqMrEGTcTIfL-91" target="l1id5_d6CqMrEGTcTIfL-109">
          <mxGeometry relative="1" as="geometry" />
        </mxCell>
        <mxCell id="l1id5_d6CqMrEGTcTIfL-91" value="激情" style="rounded=1;whiteSpace=wrap;html=1;fillColor=#d5e8d4;strokeColor=#82b366;" vertex="1" parent="1">
          <mxGeometry x="540" y="460" width="80" height="40" as="geometry" />
        </mxCell>
        <mxCell id="l1id5_d6CqMrEGTcTIfL-97" style="edgeStyle=none;shape=connector;rounded=0;orthogonalLoop=1;jettySize=auto;html=1;strokeColor=default;align=center;verticalAlign=middle;fontFamily=Helvetica;fontSize=11;fontColor=default;labelBackgroundColor=default;endArrow=none;endFill=0;" edge="1" parent="1" source="l1id5_d6CqMrEGTcTIfL-94" target="l1id5_d6CqMrEGTcTIfL-87">
          <mxGeometry relative="1" as="geometry" />
        </mxCell>
        <mxCell id="l1id5_d6CqMrEGTcTIfL-114" style="edgeStyle=none;shape=connector;rounded=0;orthogonalLoop=1;jettySize=auto;html=1;entryX=0;entryY=0.5;entryDx=0;entryDy=0;strokeColor=default;align=center;verticalAlign=middle;fontFamily=Helvetica;fontSize=11;fontColor=default;labelBackgroundColor=default;endArrow=none;endFill=0;" edge="1" parent="1" source="l1id5_d6CqMrEGTcTIfL-94" target="l1id5_d6CqMrEGTcTIfL-98">
          <mxGeometry relative="1" as="geometry" />
        </mxCell>
        <mxCell id="l1id5_d6CqMrEGTcTIfL-94" value="反馈" style="rounded=1;whiteSpace=wrap;html=1;fillColor=#d5e8d4;strokeColor=#82b366;" vertex="1" parent="1">
          <mxGeometry x="660" y="510" width="80" height="40" as="geometry" />
        </mxCell>
        <mxCell id="l1id5_d6CqMrEGTcTIfL-102" style="edgeStyle=none;shape=connector;rounded=0;orthogonalLoop=1;jettySize=auto;html=1;strokeColor=default;align=center;verticalAlign=middle;fontFamily=Helvetica;fontSize=11;fontColor=default;labelBackgroundColor=default;endArrow=none;endFill=0;" edge="1" parent="1" source="l1id5_d6CqMrEGTcTIfL-98" target="l1id5_d6CqMrEGTcTIfL-99">
          <mxGeometry relative="1" as="geometry" />
        </mxCell>
        <mxCell id="l1id5_d6CqMrEGTcTIfL-98" value="快感和&lt;br&gt;愉悦感" style="rounded=1;whiteSpace=wrap;html=1;fillColor=#d5e8d4;strokeColor=#82b366;" vertex="1" parent="1">
          <mxGeometry x="930" y="550" width="80" height="40" as="geometry" />
        </mxCell>
        <mxCell id="l1id5_d6CqMrEGTcTIfL-106" style="edgeStyle=none;shape=connector;rounded=0;orthogonalLoop=1;jettySize=auto;html=1;strokeColor=default;align=center;verticalAlign=middle;fontFamily=Helvetica;fontSize=11;fontColor=default;labelBackgroundColor=default;endArrow=none;endFill=0;" edge="1" parent="1" source="l1id5_d6CqMrEGTcTIfL-99" target="l1id5_d6CqMrEGTcTIfL-104">
          <mxGeometry relative="1" as="geometry" />
        </mxCell>
        <mxCell id="l1id5_d6CqMrEGTcTIfL-111" style="edgeStyle=none;shape=connector;rounded=0;orthogonalLoop=1;jettySize=auto;html=1;entryX=0.5;entryY=1;entryDx=0;entryDy=0;strokeColor=default;align=center;verticalAlign=middle;fontFamily=Helvetica;fontSize=11;fontColor=default;labelBackgroundColor=default;endArrow=none;endFill=0;" edge="1" parent="1" source="l1id5_d6CqMrEGTcTIfL-99" target="l1id5_d6CqMrEGTcTIfL-109">
          <mxGeometry relative="1" as="geometry" />
        </mxCell>
        <mxCell id="l1id5_d6CqMrEGTcTIfL-99" value="奖赏回路&amp;amp;&lt;br&gt;享乐热点" style="rounded=1;whiteSpace=wrap;html=1;fillColor=#e1d5e7;strokeColor=#9673a6;arcSize=29;" vertex="1" parent="1">
          <mxGeometry x="960" y="680" width="80" height="40" as="geometry" />
        </mxCell>
        <mxCell id="l1id5_d6CqMrEGTcTIfL-101" style="edgeStyle=none;shape=connector;rounded=0;orthogonalLoop=1;jettySize=auto;html=1;entryX=0.5;entryY=0;entryDx=0;entryDy=0;strokeColor=default;align=center;verticalAlign=middle;fontFamily=Helvetica;fontSize=11;fontColor=default;labelBackgroundColor=default;endArrow=none;endFill=0;" edge="1" parent="1" source="l1id5_d6CqMrEGTcTIfL-100" target="l1id5_d6CqMrEGTcTIfL-98">
          <mxGeometry relative="1" as="geometry" />
        </mxCell>
        <mxCell id="l1id5_d6CqMrEGTcTIfL-100" value="消费型娱乐" style="rounded=1;whiteSpace=wrap;html=1;fillColor=#dae8fc;strokeColor=#6c8ebf;" vertex="1" parent="1">
          <mxGeometry x="880" y="360" width="80" height="40" as="geometry" />
        </mxCell>
        <mxCell id="l1id5_d6CqMrEGTcTIfL-105" style="edgeStyle=none;shape=connector;rounded=0;orthogonalLoop=1;jettySize=auto;html=1;strokeColor=default;align=center;verticalAlign=middle;fontFamily=Helvetica;fontSize=11;fontColor=default;labelBackgroundColor=default;endArrow=none;endFill=0;" edge="1" parent="1" source="l1id5_d6CqMrEGTcTIfL-103" target="l1id5_d6CqMrEGTcTIfL-104">
          <mxGeometry relative="1" as="geometry" />
        </mxCell>
        <mxCell id="l1id5_d6CqMrEGTcTIfL-103" value="学习成长&lt;br&gt;事业目标" style="rounded=1;whiteSpace=wrap;html=1;fillColor=#dae8fc;strokeColor=#6c8ebf;" vertex="1" parent="1">
          <mxGeometry x="1040" y="350" width="80" height="40" as="geometry" />
        </mxCell>
        <mxCell id="l1id5_d6CqMrEGTcTIfL-104" value="长期稳定满足和归属感" style="rounded=1;whiteSpace=wrap;html=1;fillColor=#d5e8d4;strokeColor=#82b366;" vertex="1" parent="1">
          <mxGeometry x="1060" y="480" width="80" height="40" as="geometry" />
        </mxCell>
        <mxCell id="l1id5_d6CqMrEGTcTIfL-110" style="edgeStyle=none;shape=connector;rounded=0;orthogonalLoop=1;jettySize=auto;html=1;entryX=0.5;entryY=0;entryDx=0;entryDy=0;strokeColor=default;align=center;verticalAlign=middle;fontFamily=Helvetica;fontSize=11;fontColor=default;labelBackgroundColor=default;endArrow=none;endFill=0;" edge="1" parent="1" source="l1id5_d6CqMrEGTcTIfL-107" target="l1id5_d6CqMrEGTcTIfL-109">
          <mxGeometry relative="1" as="geometry" />
        </mxCell>
        <mxCell id="l1id5_d6CqMrEGTcTIfL-107" value="创造给予&lt;br&gt;帮助连接" style="rounded=1;whiteSpace=wrap;html=1;fillColor=#dae8fc;strokeColor=#6c8ebf;" vertex="1" parent="1">
          <mxGeometry x="1200.5" y="360" width="80" height="40" as="geometry" />
        </mxCell>
        <mxCell id="l1id5_d6CqMrEGTcTIfL-120" style="edgeStyle=none;shape=connector;rounded=0;orthogonalLoop=1;jettySize=auto;html=1;strokeColor=default;align=center;verticalAlign=middle;fontFamily=Helvetica;fontSize=11;fontColor=default;labelBackgroundColor=default;endArrow=none;endFill=0;" edge="1" parent="1" source="l1id5_d6CqMrEGTcTIfL-108" target="l1id5_d6CqMrEGTcTIfL-119">
          <mxGeometry relative="1" as="geometry" />
        </mxCell>
        <mxCell id="l1id5_d6CqMrEGTcTIfL-128" style="edgeStyle=none;shape=connector;rounded=0;orthogonalLoop=1;jettySize=auto;html=1;strokeColor=default;align=center;verticalAlign=middle;fontFamily=Helvetica;fontSize=11;fontColor=default;labelBackgroundColor=default;endArrow=none;endFill=0;" edge="1" parent="1" source="l1id5_d6CqMrEGTcTIfL-108" target="l1id5_d6CqMrEGTcTIfL-118">
          <mxGeometry relative="1" as="geometry" />
        </mxCell>
        <mxCell id="l1id5_d6CqMrEGTcTIfL-108" value="品牌" style="rounded=1;whiteSpace=wrap;html=1;fillColor=#dae8fc;strokeColor=#6c8ebf;" vertex="1" parent="1">
          <mxGeometry x="1440" y="320" width="80" height="40" as="geometry" />
        </mxCell>
        <mxCell id="l1id5_d6CqMrEGTcTIfL-109" value="意义成就感&lt;br&gt;自我效能感" style="rounded=1;whiteSpace=wrap;html=1;fillColor=#d5e8d4;strokeColor=#82b366;" vertex="1" parent="1">
          <mxGeometry x="1161" y="560" width="80" height="40" as="geometry" />
        </mxCell>
        <mxCell id="l1id5_d6CqMrEGTcTIfL-132" style="edgeStyle=none;shape=connector;rounded=0;orthogonalLoop=1;jettySize=auto;html=1;strokeColor=default;align=center;verticalAlign=middle;fontFamily=Helvetica;fontSize=11;fontColor=default;labelBackgroundColor=default;endArrow=none;endFill=0;" edge="1" parent="1" source="l1id5_d6CqMrEGTcTIfL-117" target="l1id5_d6CqMrEGTcTIfL-130">
          <mxGeometry relative="1" as="geometry" />
        </mxCell>
        <mxCell id="l1id5_d6CqMrEGTcTIfL-117" value="外界评判" style="rounded=1;whiteSpace=wrap;html=1;fillColor=#dae8fc;strokeColor=#6c8ebf;" vertex="1" parent="1">
          <mxGeometry x="1720" y="340" width="80" height="40" as="geometry" />
        </mxCell>
        <mxCell id="l1id5_d6CqMrEGTcTIfL-129" style="edgeStyle=none;shape=connector;rounded=0;orthogonalLoop=1;jettySize=auto;html=1;strokeColor=default;align=center;verticalAlign=middle;fontFamily=Helvetica;fontSize=11;fontColor=default;labelBackgroundColor=default;endArrow=none;endFill=0;" edge="1" parent="1" source="l1id5_d6CqMrEGTcTIfL-118" target="l1id5_d6CqMrEGTcTIfL-125">
          <mxGeometry relative="1" as="geometry" />
        </mxCell>
        <mxCell id="l1id5_d6CqMrEGTcTIfL-133" style="edgeStyle=none;shape=connector;rounded=0;orthogonalLoop=1;jettySize=auto;html=1;strokeColor=default;align=center;verticalAlign=middle;fontFamily=Helvetica;fontSize=11;fontColor=default;labelBackgroundColor=default;endArrow=none;endFill=0;" edge="1" parent="1" source="l1id5_d6CqMrEGTcTIfL-118" target="l1id5_d6CqMrEGTcTIfL-117">
          <mxGeometry relative="1" as="geometry" />
        </mxCell>
        <mxCell id="l1id5_d6CqMrEGTcTIfL-118" value="共识" style="rounded=1;whiteSpace=wrap;html=1;fillColor=#dae8fc;strokeColor=#6c8ebf;" vertex="1" parent="1">
          <mxGeometry x="1560" y="360" width="80" height="40" as="geometry" />
        </mxCell>
        <mxCell id="l1id5_d6CqMrEGTcTIfL-123" style="edgeStyle=none;shape=connector;rounded=0;orthogonalLoop=1;jettySize=auto;html=1;entryX=0.5;entryY=0;entryDx=0;entryDy=0;strokeColor=default;align=center;verticalAlign=middle;fontFamily=Helvetica;fontSize=11;fontColor=default;labelBackgroundColor=default;endArrow=none;endFill=0;" edge="1" parent="1" source="l1id5_d6CqMrEGTcTIfL-119" target="l1id5_d6CqMrEGTcTIfL-122">
          <mxGeometry relative="1" as="geometry" />
        </mxCell>
        <mxCell id="l1id5_d6CqMrEGTcTIfL-119" value="创造需求" style="rounded=1;whiteSpace=wrap;html=1;fillColor=#d5e8d4;strokeColor=#82b366;" vertex="1" parent="1">
          <mxGeometry x="1440" y="480" width="80" height="40" as="geometry" />
        </mxCell>
        <mxCell id="l1id5_d6CqMrEGTcTIfL-121" value="社会认同" style="rounded=1;whiteSpace=wrap;html=1;fillColor=#e1d5e7;strokeColor=#9673a6;arcSize=29;" vertex="1" parent="1">
          <mxGeometry x="1440" y="680" width="80" height="40" as="geometry" />
        </mxCell>
        <mxCell id="l1id5_d6CqMrEGTcTIfL-124" style="edgeStyle=none;shape=connector;rounded=0;orthogonalLoop=1;jettySize=auto;html=1;strokeColor=default;align=center;verticalAlign=middle;fontFamily=Helvetica;fontSize=11;fontColor=default;labelBackgroundColor=default;endArrow=none;endFill=0;" edge="1" parent="1" source="l1id5_d6CqMrEGTcTIfL-122" target="l1id5_d6CqMrEGTcTIfL-121">
          <mxGeometry relative="1" as="geometry" />
        </mxCell>
        <mxCell id="l1id5_d6CqMrEGTcTIfL-126" style="edgeStyle=none;shape=connector;rounded=0;orthogonalLoop=1;jettySize=auto;html=1;strokeColor=default;align=center;verticalAlign=middle;fontFamily=Helvetica;fontSize=11;fontColor=default;labelBackgroundColor=default;endArrow=none;endFill=0;" edge="1" parent="1" source="l1id5_d6CqMrEGTcTIfL-122" target="l1id5_d6CqMrEGTcTIfL-125">
          <mxGeometry relative="1" as="geometry" />
        </mxCell>
        <mxCell id="l1id5_d6CqMrEGTcTIfL-122" value="圈子" style="rounded=1;whiteSpace=wrap;html=1;fillColor=#d5e8d4;strokeColor=#82b366;" vertex="1" parent="1">
          <mxGeometry x="1400" y="560" width="80" height="40" as="geometry" />
        </mxCell>
        <mxCell id="l1id5_d6CqMrEGTcTIfL-131" style="edgeStyle=none;shape=connector;rounded=0;orthogonalLoop=1;jettySize=auto;html=1;strokeColor=default;align=center;verticalAlign=middle;fontFamily=Helvetica;fontSize=11;fontColor=default;labelBackgroundColor=default;endArrow=none;endFill=0;" edge="1" parent="1" source="l1id5_d6CqMrEGTcTIfL-125" target="l1id5_d6CqMrEGTcTIfL-130">
          <mxGeometry relative="1" as="geometry" />
        </mxCell>
        <mxCell id="l1id5_d6CqMrEGTcTIfL-125" value="符号" style="rounded=1;whiteSpace=wrap;html=1;fillColor=#d5e8d4;strokeColor=#82b366;" vertex="1" parent="1">
          <mxGeometry x="1560" y="530" width="80" height="40" as="geometry" />
        </mxCell>
        <mxCell id="l1id5_d6CqMrEGTcTIfL-135" style="edgeStyle=none;shape=connector;rounded=0;orthogonalLoop=1;jettySize=auto;html=1;strokeColor=default;align=center;verticalAlign=middle;fontFamily=Helvetica;fontSize=11;fontColor=default;labelBackgroundColor=default;endArrow=none;endFill=0;" edge="1" parent="1" source="l1id5_d6CqMrEGTcTIfL-130" target="l1id5_d6CqMrEGTcTIfL-134">
          <mxGeometry relative="1" as="geometry" />
        </mxCell>
        <mxCell id="l1id5_d6CqMrEGTcTIfL-130" value="人的价值" style="rounded=1;whiteSpace=wrap;html=1;fillColor=#d5e8d4;strokeColor=#82b366;" vertex="1" parent="1">
          <mxGeometry x="1720" y="520" width="80" height="40" as="geometry" />
        </mxCell>
        <mxCell id="l1id5_d6CqMrEGTcTIfL-134" value="内在投射" style="rounded=1;whiteSpace=wrap;html=1;fillColor=#e1d5e7;strokeColor=#9673a6;arcSize=29;" vertex="1" parent="1">
          <mxGeometry x="1720" y="680" width="80" height="40" as="geometry" />
        </mxCell>
        <mxCell id="l1id5_d6CqMrEGTcTIfL-139" style="edgeStyle=none;shape=connector;rounded=0;orthogonalLoop=1;jettySize=auto;html=1;strokeColor=default;align=center;verticalAlign=middle;fontFamily=Helvetica;fontSize=11;fontColor=default;labelBackgroundColor=default;endArrow=none;endFill=0;" edge="1" parent="1" source="l1id5_d6CqMrEGTcTIfL-136" target="l1id5_d6CqMrEGTcTIfL-138">
          <mxGeometry relative="1" as="geometry" />
        </mxCell>
        <mxCell id="l1id5_d6CqMrEGTcTIfL-136" value="整段时间" style="rounded=1;whiteSpace=wrap;html=1;fillColor=#dae8fc;strokeColor=#6c8ebf;" vertex="1" parent="1">
          <mxGeometry x="2040" y="360" width="80" height="40" as="geometry" />
        </mxCell>
        <mxCell id="l1id5_d6CqMrEGTcTIfL-142" style="edgeStyle=none;shape=connector;rounded=0;orthogonalLoop=1;jettySize=auto;html=1;entryX=0.5;entryY=0;entryDx=0;entryDy=0;strokeColor=default;align=center;verticalAlign=middle;fontFamily=Helvetica;fontSize=11;fontColor=default;labelBackgroundColor=default;endArrow=none;endFill=0;" edge="1" parent="1" source="l1id5_d6CqMrEGTcTIfL-137" target="l1id5_d6CqMrEGTcTIfL-141">
          <mxGeometry relative="1" as="geometry" />
        </mxCell>
        <mxCell id="l1id5_d6CqMrEGTcTIfL-137" value="零散时间" style="rounded=1;whiteSpace=wrap;html=1;fillColor=#dae8fc;strokeColor=#6c8ebf;" vertex="1" parent="1">
          <mxGeometry x="2200" y="340" width="80" height="40" as="geometry" />
        </mxCell>
        <mxCell id="l1id5_d6CqMrEGTcTIfL-143" style="edgeStyle=none;shape=connector;rounded=0;orthogonalLoop=1;jettySize=auto;html=1;entryX=0.5;entryY=0;entryDx=0;entryDy=0;strokeColor=default;align=center;verticalAlign=middle;fontFamily=Helvetica;fontSize=11;fontColor=default;labelBackgroundColor=default;endArrow=none;endFill=0;" edge="1" parent="1" source="l1id5_d6CqMrEGTcTIfL-138" target="l1id5_d6CqMrEGTcTIfL-140">
          <mxGeometry relative="1" as="geometry" />
        </mxCell>
        <mxCell id="l1id5_d6CqMrEGTcTIfL-138" value="专注" style="rounded=1;whiteSpace=wrap;html=1;fillColor=#d5e8d4;strokeColor=#82b366;" vertex="1" parent="1">
          <mxGeometry x="1960" y="520" width="80" height="40" as="geometry" />
        </mxCell>
        <mxCell id="l1id5_d6CqMrEGTcTIfL-140" value="心流" style="rounded=1;whiteSpace=wrap;html=1;fillColor=#e1d5e7;strokeColor=#9673a6;arcSize=29;" vertex="1" parent="1">
          <mxGeometry x="2030" y="680" width="80" height="40" as="geometry" />
        </mxCell>
        <mxCell id="l1id5_d6CqMrEGTcTIfL-141" value="散漫" style="rounded=1;whiteSpace=wrap;html=1;fillColor=#d5e8d4;strokeColor=#82b366;" vertex="1" parent="1">
          <mxGeometry x="2160" y="480" width="80" height="40" as="geometry" />
        </mxCell>
      </root>
    </mxGraphModel>
  </diagram>
</mxfile>
